<mxfile host="app.diagrams.net" agent="Mozilla/5.0 (Windows NT 10.0; Win64; x64) AppleWebKit/537.36 (KHTML, like Gecko) Chrome/129.0.0.0 Safari/537.36 Edg/129.0.0.0" version="24.7.16">
  <diagram name="Page-1" id="2YBvvXClWsGukQMizWep">
    <mxGraphModel dx="1834" dy="528" grid="1" gridSize="10" guides="1" tooltips="1" connect="1" arrows="1" fold="1" page="1" pageScale="1" pageWidth="850" pageHeight="1100" math="0" shadow="0">
      <root>
        <mxCell id="0" />
        <mxCell id="1" parent="0" />
        <mxCell id="23khw75I1qNBK4fEZWJX-71" value="Mediator" style="shape=umlLifeline;perimeter=lifelinePerimeter;whiteSpace=wrap;html=1;container=1;dropTarget=0;collapsible=0;recursiveResize=0;outlineConnect=0;portConstraint=eastwest;newEdgeStyle={&quot;curved&quot;:0,&quot;rounded&quot;:0};" vertex="1" parent="1">
          <mxGeometry x="-210" y="60.01" width="100" height="629.99" as="geometry" />
        </mxCell>
        <mxCell id="23khw75I1qNBK4fEZWJX-72" value="ListTicketsHandler" style="shape=umlLifeline;perimeter=lifelinePerimeter;whiteSpace=wrap;html=1;container=1;dropTarget=0;collapsible=0;recursiveResize=0;outlineConnect=0;portConstraint=eastwest;newEdgeStyle={&quot;curved&quot;:0,&quot;rounded&quot;:0};" vertex="1" parent="1">
          <mxGeometry x="25" y="60.01" width="110" height="629.99" as="geometry" />
        </mxCell>
        <mxCell id="23khw75I1qNBK4fEZWJX-3" value="User Interface" style="shape=umlBoundary;whiteSpace=wrap;html=1;" vertex="1" parent="1">
          <mxGeometry x="-650" y="45" width="80" height="70" as="geometry" />
        </mxCell>
        <mxCell id="23khw75I1qNBK4fEZWJX-4" value="" style="endArrow=none;dashed=1;html=1;strokeWidth=1;rounded=0;" edge="1" parent="1" source="23khw75I1qNBK4fEZWJX-18">
          <mxGeometry width="50" height="50" relative="1" as="geometry">
            <mxPoint x="-600" y="690" as="sourcePoint" />
            <mxPoint x="-600.42" y="130" as="targetPoint" />
          </mxGeometry>
        </mxCell>
        <mxCell id="23khw75I1qNBK4fEZWJX-6" value="Backend&lt;div&gt;Endpoints&lt;/div&gt;" style="shape=umlBoundary;whiteSpace=wrap;html=1;" vertex="1" parent="1">
          <mxGeometry x="-480" y="45" width="80" height="70" as="geometry" />
        </mxCell>
        <mxCell id="23khw75I1qNBK4fEZWJX-7" value="" style="endArrow=none;dashed=1;html=1;strokeWidth=1;rounded=0;" edge="1" parent="1">
          <mxGeometry width="50" height="50" relative="1" as="geometry">
            <mxPoint x="-430" y="160" as="sourcePoint" />
            <mxPoint x="-430" y="130" as="targetPoint" />
          </mxGeometry>
        </mxCell>
        <mxCell id="23khw75I1qNBK4fEZWJX-16" value="" style="endArrow=block;endFill=1;html=1;edgeStyle=orthogonalEdgeStyle;align=left;verticalAlign=top;rounded=0;" edge="1" parent="1">
          <mxGeometry x="-1" relative="1" as="geometry">
            <mxPoint x="-770" y="170" as="sourcePoint" />
            <mxPoint x="-605" y="169.99857142857135" as="targetPoint" />
            <Array as="points">
              <mxPoint x="-740" y="169.97" />
            </Array>
          </mxGeometry>
        </mxCell>
        <mxCell id="23khw75I1qNBK4fEZWJX-17" value="Click &#39;Tickets&#39; on event UI" style="edgeLabel;resizable=0;html=1;align=left;verticalAlign=bottom;" connectable="0" vertex="1" parent="23khw75I1qNBK4fEZWJX-16">
          <mxGeometry x="-1" relative="1" as="geometry" />
        </mxCell>
        <mxCell id="23khw75I1qNBK4fEZWJX-19" value="" style="endArrow=none;dashed=1;html=1;strokeWidth=1;rounded=0;" edge="1" parent="1" source="23khw75I1qNBK4fEZWJX-41" target="23khw75I1qNBK4fEZWJX-18">
          <mxGeometry width="50" height="50" relative="1" as="geometry">
            <mxPoint x="-600" y="690" as="sourcePoint" />
            <mxPoint x="-600.42" y="130" as="targetPoint" />
          </mxGeometry>
        </mxCell>
        <mxCell id="23khw75I1qNBK4fEZWJX-18" value="" style="html=1;points=[[0,0,0,0,5],[0,1,0,0,-5],[1,0,0,0,5],[1,1,0,0,-5]];perimeter=orthogonalPerimeter;outlineConnect=0;targetShapes=umlLifeline;portConstraint=eastwest;newEdgeStyle={&quot;curved&quot;:0,&quot;rounded&quot;:0};" vertex="1" parent="1">
          <mxGeometry x="-605" y="170" width="10" height="260" as="geometry" />
        </mxCell>
        <mxCell id="23khw75I1qNBK4fEZWJX-20" value="list-event-tickets (event_id)&lt;div style=&quot;font-size: 10px;&quot;&gt;return: array&amp;lt;tickets&amp;gt;&lt;/div&gt;" style="endArrow=block;endFill=1;html=1;edgeStyle=orthogonalEdgeStyle;align=left;verticalAlign=top;rounded=0;fontSize=10;" edge="1" parent="1" target="23khw75I1qNBK4fEZWJX-22">
          <mxGeometry x="-1" relative="1" as="geometry">
            <mxPoint x="-595" y="170" as="sourcePoint" />
            <mxPoint x="-480" y="170" as="targetPoint" />
            <Array as="points">
              <mxPoint x="-470" y="170" />
              <mxPoint x="-470" y="170" />
            </Array>
          </mxGeometry>
        </mxCell>
        <mxCell id="23khw75I1qNBK4fEZWJX-21" value="GET" style="edgeLabel;resizable=0;html=1;align=left;verticalAlign=bottom;" connectable="0" vertex="1" parent="23khw75I1qNBK4fEZWJX-20">
          <mxGeometry x="-1" relative="1" as="geometry" />
        </mxCell>
        <mxCell id="23khw75I1qNBK4fEZWJX-24" value="" style="endArrow=none;dashed=1;html=1;strokeWidth=1;rounded=0;strokeColor=default;" edge="1" parent="1">
          <mxGeometry width="50" height="50" relative="1" as="geometry">
            <mxPoint x="-435.00000000000006" y="690" as="sourcePoint" />
            <mxPoint x="-430" y="160" as="targetPoint" />
          </mxGeometry>
        </mxCell>
        <mxCell id="23khw75I1qNBK4fEZWJX-22" value="" style="html=1;points=[[0,0,0,0,5],[0,1,0,0,-5],[1,0,0,0,5],[1,1,0,0,-5]];perimeter=orthogonalPerimeter;outlineConnect=0;targetShapes=umlLifeline;portConstraint=eastwest;newEdgeStyle={&quot;curved&quot;:0,&quot;rounded&quot;:0};" vertex="1" parent="1">
          <mxGeometry x="-435" y="170" width="10" height="260" as="geometry" />
        </mxCell>
        <mxCell id="23khw75I1qNBK4fEZWJX-25" value="Send(ListTickets { int? event_id, available: true } )&lt;div style=&quot;font-size: 10px;&quot;&gt;return: List&amp;lt;tickets&amp;gt;&lt;/div&gt;" style="endArrow=block;endFill=1;html=1;edgeStyle=orthogonalEdgeStyle;align=left;verticalAlign=top;rounded=0;fontSize=10;" edge="1" parent="1" target="23khw75I1qNBK4fEZWJX-27">
          <mxGeometry x="-1" relative="1" as="geometry">
            <mxPoint x="-425" y="170" as="sourcePoint" />
            <mxPoint x="-170" y="170" as="targetPoint" />
            <Array as="points">
              <mxPoint x="-425" y="171" />
            </Array>
          </mxGeometry>
        </mxCell>
        <mxCell id="23khw75I1qNBK4fEZWJX-27" value="" style="html=1;points=[[0,0,0,0,5],[0,1,0,0,-5],[1,0,0,0,5],[1,1,0,0,-5]];perimeter=orthogonalPerimeter;outlineConnect=0;targetShapes=umlLifeline;portConstraint=eastwest;newEdgeStyle={&quot;curved&quot;:0,&quot;rounded&quot;:0};" vertex="1" parent="1">
          <mxGeometry x="-165" y="170" width="10" height="260" as="geometry" />
        </mxCell>
        <mxCell id="23khw75I1qNBK4fEZWJX-28" value="" style="html=1;points=[[0,0,0,0,5],[0,1,0,0,-5],[1,0,0,0,5],[1,1,0,0,-5]];perimeter=orthogonalPerimeter;outlineConnect=0;targetShapes=umlLifeline;portConstraint=eastwest;newEdgeStyle={&quot;curved&quot;:0,&quot;rounded&quot;:0};" vertex="1" parent="1">
          <mxGeometry x="75" y="170" width="10" height="260" as="geometry" />
        </mxCell>
        <mxCell id="23khw75I1qNBK4fEZWJX-29" value="HandleRequest(ListTickets&lt;div style=&quot;font-size: 10px;&quot;&gt;&lt;span style=&quot;white-space: pre; font-size: 10px;&quot;&gt;&#x9;&lt;/span&gt;&amp;nbsp;{ int? event_id, available: true } )&lt;div style=&quot;font-size: 10px;&quot;&gt;return: List&amp;lt;tickets&amp;gt;&lt;/div&gt;&lt;/div&gt;" style="endArrow=block;endFill=1;html=1;edgeStyle=orthogonalEdgeStyle;align=left;verticalAlign=top;rounded=0;fontSize=10;" edge="1" parent="1" target="23khw75I1qNBK4fEZWJX-28">
          <mxGeometry x="-1" relative="1" as="geometry">
            <mxPoint x="-155" y="170" as="sourcePoint" />
            <mxPoint x="70" y="171" as="targetPoint" />
            <Array as="points">
              <mxPoint x="20" y="170" />
              <mxPoint x="20" y="170" />
            </Array>
          </mxGeometry>
        </mxCell>
        <mxCell id="23khw75I1qNBK4fEZWJX-34" value="" style="html=1;points=[[0,0,0,0,5],[0,1,0,0,-5],[1,0,0,0,5],[1,1,0,0,-5]];perimeter=orthogonalPerimeter;outlineConnect=0;targetShapes=umlLifeline;portConstraint=eastwest;newEdgeStyle={&quot;curved&quot;:0,&quot;rounded&quot;:0};" vertex="1" parent="1">
          <mxGeometry x="-595" y="230.02" width="10" height="39.98" as="geometry" />
        </mxCell>
        <mxCell id="23khw75I1qNBK4fEZWJX-35" value="Route to event tickets" style="html=1;align=left;spacingLeft=2;endArrow=block;rounded=0;edgeStyle=orthogonalEdgeStyle;curved=0;rounded=0;" edge="1" target="23khw75I1qNBK4fEZWJX-34" parent="1">
          <mxGeometry relative="1" as="geometry">
            <mxPoint x="-595" y="219.9799999999999" as="sourcePoint" />
            <Array as="points">
              <mxPoint x="-560" y="219.98000000000002" />
              <mxPoint x="-560" y="249.98000000000002" />
            </Array>
          </mxGeometry>
        </mxCell>
        <mxCell id="23khw75I1qNBK4fEZWJX-38" value="" style="shape=umlLifeline;perimeter=lifelinePerimeter;whiteSpace=wrap;html=1;container=1;dropTarget=0;collapsible=0;recursiveResize=0;outlineConnect=0;portConstraint=eastwest;newEdgeStyle={&quot;curved&quot;:0,&quot;rounded&quot;:0};participant=umlActor;" vertex="1" parent="1">
          <mxGeometry x="-780" y="65" width="20" height="625" as="geometry" />
        </mxCell>
        <mxCell id="23khw75I1qNBK4fEZWJX-42" value="" style="endArrow=none;dashed=1;html=1;strokeWidth=1;rounded=0;" edge="1" parent="1" target="23khw75I1qNBK4fEZWJX-41">
          <mxGeometry width="50" height="50" relative="1" as="geometry">
            <mxPoint x="-600" y="690" as="sourcePoint" />
            <mxPoint x="-600" y="280" as="targetPoint" />
          </mxGeometry>
        </mxCell>
        <mxCell id="23khw75I1qNBK4fEZWJX-48" value="" style="html=1;points=[[0,0,0,0,5],[0,1,0,0,-5],[1,0,0,0,5],[1,1,0,0,-5]];perimeter=orthogonalPerimeter;outlineConnect=0;targetShapes=umlLifeline;portConstraint=eastwest;newEdgeStyle={&quot;curved&quot;:0,&quot;rounded&quot;:0};" vertex="1" parent="1">
          <mxGeometry x="85" y="250.03" width="10" height="40" as="geometry" />
        </mxCell>
        <mxCell id="23khw75I1qNBK4fEZWJX-49" value="Task.WhenALL(cache, database)" style="html=1;align=left;spacingLeft=2;endArrow=block;rounded=0;edgeStyle=orthogonalEdgeStyle;curved=0;rounded=0;fontSize=10;" edge="1" target="23khw75I1qNBK4fEZWJX-48" parent="1">
          <mxGeometry relative="1" as="geometry">
            <mxPoint x="85" y="230.02" as="sourcePoint" />
            <Array as="points">
              <mxPoint x="120" y="230.02" />
              <mxPoint x="120" y="260.02" />
            </Array>
          </mxGeometry>
        </mxCell>
        <mxCell id="23khw75I1qNBK4fEZWJX-56" value="" style="group;fontSize=10;align=left;" vertex="1" connectable="0" parent="1">
          <mxGeometry x="90" y="170" width="230" height="35" as="geometry" />
        </mxCell>
        <mxCell id="23khw75I1qNBK4fEZWJX-55" value="&lt;span style=&quot;font-size: 11px; background-color: rgb(255, 255, 255);&quot;&gt;scan --pattern event_id.*&amp;nbsp;&lt;/span&gt;&lt;div&gt;&lt;span style=&quot;font-size: 11px; background-color: rgb(255, 255, 255);&quot;&gt;return List&amp;lt;Key&amp;gt;&lt;/span&gt;&lt;/div&gt;" style="text;html=1;align=left;verticalAlign=middle;resizable=0;points=[];autosize=1;strokeColor=none;fillColor=none;" vertex="1" parent="23khw75I1qNBK4fEZWJX-56">
          <mxGeometry y="-5" width="150" height="40" as="geometry" />
        </mxCell>
        <mxCell id="23khw75I1qNBK4fEZWJX-57" value="" style="group;fontSize=10;align=left;" vertex="1" connectable="0" parent="1">
          <mxGeometry x="90" y="200.01999999999998" width="200" height="35" as="geometry" />
        </mxCell>
        <mxCell id="23khw75I1qNBK4fEZWJX-59" value="&lt;span style=&quot;font-size: 11px; background-color: rgb(255, 255, 255);&quot;&gt;select ... from Tickets where event_id&lt;/span&gt;&lt;div&gt;&lt;span style=&quot;font-size: 11px; background-color: rgb(255, 255, 255);&quot;&gt;return List&amp;lt;Ticket&amp;gt;&lt;/span&gt;&lt;/div&gt;" style="text;html=1;align=left;verticalAlign=middle;resizable=0;points=[];autosize=1;strokeColor=none;fillColor=none;" vertex="1" parent="23khw75I1qNBK4fEZWJX-57">
          <mxGeometry y="-5" width="200" height="40" as="geometry" />
        </mxCell>
        <mxCell id="23khw75I1qNBK4fEZWJX-58" value="" style="endArrow=open;endFill=1;endSize=12;html=1;rounded=0;" edge="1" parent="23khw75I1qNBK4fEZWJX-57">
          <mxGeometry width="160" relative="1" as="geometry">
            <mxPoint x="-5" as="sourcePoint" />
            <mxPoint x="650" as="targetPoint" />
          </mxGeometry>
        </mxCell>
        <mxCell id="23khw75I1qNBK4fEZWJX-60" value="db" style="shape=umlLifeline;perimeter=lifelinePerimeter;whiteSpace=wrap;html=1;container=1;dropTarget=0;collapsible=0;recursiveResize=0;outlineConnect=0;portConstraint=eastwest;newEdgeStyle={&quot;curved&quot;:0,&quot;rounded&quot;:0};participant=umlBoundary;" vertex="1" parent="1">
          <mxGeometry x="550" y="65" width="50" height="625" as="geometry" />
        </mxCell>
        <mxCell id="23khw75I1qNBK4fEZWJX-44" value="" style="html=1;points=[[0,0,0,0,5],[0,1,0,0,-5],[1,0,0,0,5],[1,1,0,0,-5]];perimeter=orthogonalPerimeter;outlineConnect=0;targetShapes=umlLifeline;portConstraint=eastwest;newEdgeStyle={&quot;curved&quot;:0,&quot;rounded&quot;:0};" vertex="1" parent="23khw75I1qNBK4fEZWJX-60">
          <mxGeometry x="20" y="105" width="10" height="135" as="geometry" />
        </mxCell>
        <mxCell id="23khw75I1qNBK4fEZWJX-61" value="cache" style="shape=umlLifeline;perimeter=lifelinePerimeter;whiteSpace=wrap;html=1;container=1;dropTarget=0;collapsible=0;recursiveResize=0;outlineConnect=0;portConstraint=eastwest;newEdgeStyle={&quot;curved&quot;:0,&quot;rounded&quot;:0};participant=umlBoundary;align=right;" vertex="1" parent="1">
          <mxGeometry x="720" y="65" width="50" height="625" as="geometry" />
        </mxCell>
        <mxCell id="23khw75I1qNBK4fEZWJX-46" value="" style="html=1;points=[[0,0,0,0,5],[0,1,0,0,-5],[1,0,0,0,5],[1,1,0,0,-5]];perimeter=orthogonalPerimeter;outlineConnect=0;targetShapes=umlLifeline;portConstraint=eastwest;newEdgeStyle={&quot;curved&quot;:0,&quot;rounded&quot;:0};" vertex="1" parent="23khw75I1qNBK4fEZWJX-61">
          <mxGeometry x="20" y="135.02" width="10" height="114.98" as="geometry" />
        </mxCell>
        <mxCell id="23khw75I1qNBK4fEZWJX-54" value="" style="endArrow=open;endFill=1;endSize=12;html=1;rounded=0;" edge="1" parent="1" source="23khw75I1qNBK4fEZWJX-28" target="23khw75I1qNBK4fEZWJX-44">
          <mxGeometry width="160" relative="1" as="geometry">
            <mxPoint x="90" y="170" as="sourcePoint" />
            <mxPoint x="250" y="170" as="targetPoint" />
            <Array as="points">
              <mxPoint x="320" y="170" />
            </Array>
          </mxGeometry>
        </mxCell>
        <mxCell id="23khw75I1qNBK4fEZWJX-62" value="" style="html=1;points=[[0,0,0,0,5],[0,1,0,0,-5],[1,0,0,0,5],[1,1,0,0,-5]];perimeter=orthogonalPerimeter;outlineConnect=0;targetShapes=umlLifeline;portConstraint=eastwest;newEdgeStyle={&quot;curved&quot;:0,&quot;rounded&quot;:0};" vertex="1" parent="1">
          <mxGeometry x="85" y="360" width="10" height="40" as="geometry" />
        </mxCell>
        <mxCell id="23khw75I1qNBK4fEZWJX-63" value="List&amp;lt;Ticket&amp;gt;.Where(t =&amp;gt; HashSet&amp;lt;Key&amp;gt;.Contains($&quot;event_id.{t.id}&quot;))" style="html=1;align=left;spacingLeft=2;endArrow=block;rounded=0;edgeStyle=orthogonalEdgeStyle;curved=0;rounded=0;fontSize=10;" edge="1" parent="1" target="23khw75I1qNBK4fEZWJX-62">
          <mxGeometry relative="1" as="geometry">
            <mxPoint x="85" y="339.99" as="sourcePoint" />
            <Array as="points">
              <mxPoint x="120" y="339.99" />
              <mxPoint x="120" y="369.99" />
            </Array>
          </mxGeometry>
        </mxCell>
        <mxCell id="23khw75I1qNBK4fEZWJX-69" value="" style="html=1;verticalAlign=bottom;endArrow=open;dashed=1;endSize=8;curved=0;rounded=0;" edge="1" parent="1">
          <mxGeometry relative="1" as="geometry">
            <mxPoint x="570" y="299.8" as="sourcePoint" />
            <mxPoint x="85" y="299.8" as="targetPoint" />
          </mxGeometry>
        </mxCell>
        <mxCell id="23khw75I1qNBK4fEZWJX-70" value="" style="html=1;verticalAlign=bottom;endArrow=open;dashed=1;endSize=8;curved=0;rounded=0;exitX=0;exitY=1;exitDx=0;exitDy=-5;exitPerimeter=0;" edge="1" parent="1" source="23khw75I1qNBK4fEZWJX-46">
          <mxGeometry relative="1" as="geometry">
            <mxPoint x="570" y="309.8" as="sourcePoint" />
            <mxPoint x="85" y="309.8" as="targetPoint" />
          </mxGeometry>
        </mxCell>
        <mxCell id="23khw75I1qNBK4fEZWJX-73" value="" style="endArrow=block;endFill=1;html=1;edgeStyle=orthogonalEdgeStyle;align=left;verticalAlign=top;rounded=0;" edge="1" parent="1">
          <mxGeometry x="-1" relative="1" as="geometry">
            <mxPoint x="-770" y="590" as="sourcePoint" />
            <mxPoint x="-605" y="589.9985714285714" as="targetPoint" />
            <Array as="points">
              <mxPoint x="-740" y="589.97" />
            </Array>
          </mxGeometry>
        </mxCell>
        <mxCell id="23khw75I1qNBK4fEZWJX-74" value="Click &#39;Buy&#39; on chosen ticket" style="edgeLabel;resizable=0;html=1;align=left;verticalAlign=bottom;" connectable="0" vertex="1" parent="23khw75I1qNBK4fEZWJX-73">
          <mxGeometry x="-1" relative="1" as="geometry" />
        </mxCell>
        <mxCell id="23khw75I1qNBK4fEZWJX-75" value="" style="html=1;points=[[0,0,0,0,5],[0,1,0,0,-5],[1,0,0,0,5],[1,1,0,0,-5]];perimeter=orthogonalPerimeter;outlineConnect=0;targetShapes=umlLifeline;portConstraint=eastwest;newEdgeStyle={&quot;curved&quot;:0,&quot;rounded&quot;:0};" vertex="1" parent="1">
          <mxGeometry x="-605" y="590" width="10" height="40" as="geometry" />
        </mxCell>
        <mxCell id="23khw75I1qNBK4fEZWJX-41" value="" style="html=1;points=[[0,0,0,0,5],[0,1,0,0,-5],[1,0,0,0,5],[1,1,0,0,-5]];perimeter=orthogonalPerimeter;outlineConnect=0;targetShapes=umlLifeline;portConstraint=eastwest;newEdgeStyle={&quot;curved&quot;:0,&quot;rounded&quot;:0};" vertex="1" parent="1">
          <mxGeometry x="-605" y="460.27" width="10" height="79.73" as="geometry" />
        </mxCell>
        <mxCell id="23khw75I1qNBK4fEZWJX-50" value="" style="group" vertex="1" connectable="0" parent="1">
          <mxGeometry x="-510" y="430" width="585" height="0.5399999999999636" as="geometry" />
        </mxCell>
        <mxCell id="23khw75I1qNBK4fEZWJX-30" value="" style="html=1;verticalAlign=bottom;endArrow=open;dashed=1;endSize=8;curved=0;rounded=0;" edge="1" parent="23khw75I1qNBK4fEZWJX-50" target="23khw75I1qNBK4fEZWJX-27">
          <mxGeometry relative="1" as="geometry">
            <mxPoint x="585" as="sourcePoint" />
            <mxPoint x="370" as="targetPoint" />
          </mxGeometry>
        </mxCell>
        <mxCell id="23khw75I1qNBK4fEZWJX-31" value="" style="html=1;verticalAlign=bottom;endArrow=open;dashed=1;endSize=8;curved=0;rounded=0;" edge="1" parent="23khw75I1qNBK4fEZWJX-50">
          <mxGeometry relative="1" as="geometry">
            <mxPoint x="340" as="sourcePoint" />
            <mxPoint x="85" y="0.5399999999999636" as="targetPoint" />
          </mxGeometry>
        </mxCell>
        <mxCell id="23khw75I1qNBK4fEZWJX-32" value="" style="html=1;verticalAlign=bottom;endArrow=open;dashed=1;endSize=8;curved=0;rounded=0;" edge="1" parent="23khw75I1qNBK4fEZWJX-50" target="23khw75I1qNBK4fEZWJX-18">
          <mxGeometry relative="1" as="geometry">
            <mxPoint x="70" as="sourcePoint" />
            <mxPoint x="-80" as="targetPoint" />
            <Array as="points">
              <mxPoint y="0.2699999999999818" />
            </Array>
          </mxGeometry>
        </mxCell>
        <mxCell id="23khw75I1qNBK4fEZWJX-39" value="" style="html=1;points=[[0,0,0,0,5],[0,1,0,0,-5],[1,0,0,0,5],[1,1,0,0,-5]];perimeter=orthogonalPerimeter;outlineConnect=0;targetShapes=umlLifeline;portConstraint=eastwest;newEdgeStyle={&quot;curved&quot;:0,&quot;rounded&quot;:0};" vertex="1" parent="1">
          <mxGeometry x="-595" y="485.14" width="10" height="40" as="geometry" />
        </mxCell>
        <mxCell id="23khw75I1qNBK4fEZWJX-40" value="sortByPriceDsc" style="html=1;align=left;spacingLeft=2;endArrow=block;rounded=0;edgeStyle=orthogonalEdgeStyle;curved=0;rounded=0;" edge="1" target="23khw75I1qNBK4fEZWJX-39" parent="1" source="23khw75I1qNBK4fEZWJX-41">
          <mxGeometry x="0.2857" relative="1" as="geometry">
            <mxPoint x="-590" y="470" as="sourcePoint" />
            <Array as="points">
              <mxPoint x="-560" y="470" />
              <mxPoint x="-560" y="505" />
            </Array>
            <mxPoint as="offset" />
          </mxGeometry>
        </mxCell>
        <mxCell id="23khw75I1qNBK4fEZWJX-67" value="" style="endArrow=block;endFill=1;html=1;edgeStyle=orthogonalEdgeStyle;align=left;verticalAlign=top;rounded=0;" edge="1" parent="1" source="23khw75I1qNBK4fEZWJX-38">
          <mxGeometry x="-1" relative="1" as="geometry">
            <mxPoint x="-765" y="460.27" as="sourcePoint" />
            <mxPoint x="-605" y="460.27" as="targetPoint" />
            <Array as="points">
              <mxPoint x="-682" y="460" />
            </Array>
          </mxGeometry>
        </mxCell>
        <mxCell id="23khw75I1qNBK4fEZWJX-68" value="Click Order By Price 2 times" style="edgeLabel;resizable=0;html=1;align=left;verticalAlign=bottom;" connectable="0" vertex="1" parent="23khw75I1qNBK4fEZWJX-67">
          <mxGeometry x="-1" relative="1" as="geometry" />
        </mxCell>
        <mxCell id="23khw75I1qNBK4fEZWJX-79" value="&lt;p style=&quot;line-height: 100%; font-size: 6px;&quot;&gt;ref ticketStateMachine&lt;/p&gt;" style="shape=umlFrame;whiteSpace=wrap;html=1;pointerEvents=0;align=left;fontSize=6;" vertex="1" parent="1">
          <mxGeometry x="-440" y="590" width="1200" height="90" as="geometry" />
        </mxCell>
        <mxCell id="23khw75I1qNBK4fEZWJX-80" value="" style="endArrow=block;endFill=1;html=1;edgeStyle=orthogonalEdgeStyle;align=left;verticalAlign=top;rounded=0;" edge="1" parent="1">
          <mxGeometry x="-1" relative="1" as="geometry">
            <mxPoint x="-595" y="590" as="sourcePoint" />
            <mxPoint x="-440" y="590" as="targetPoint" />
            <Array as="points">
              <mxPoint x="-565" y="589.97" />
            </Array>
          </mxGeometry>
        </mxCell>
        <mxCell id="23khw75I1qNBK4fEZWJX-81" value="POST" style="edgeLabel;resizable=0;html=1;align=left;verticalAlign=bottom;" connectable="0" vertex="1" parent="23khw75I1qNBK4fEZWJX-80">
          <mxGeometry x="-1" relative="1" as="geometry" />
        </mxCell>
        <mxCell id="23khw75I1qNBK4fEZWJX-83" value="buy-ticket (ticket_id,event_id)" style="text;html=1;align=left;verticalAlign=middle;resizable=0;points=[];autosize=1;strokeColor=none;fillColor=none;fontSize=10;" vertex="1" parent="1">
          <mxGeometry x="-595" y="588" width="150" height="30" as="geometry" />
        </mxCell>
      </root>
    </mxGraphModel>
  </diagram>
</mxfile>
